<mxfile host="Electron" modified="2023-04-17T17:26:10.968Z" agent="Mozilla/5.0 (Windows NT 10.0; Win64; x64) AppleWebKit/537.36 (KHTML, like Gecko) draw.io/21.1.2 Chrome/106.0.5249.199 Electron/21.4.3 Safari/537.36" etag="r7k_Tz-Wu2p3bCyKtq9g" version="21.1.2" type="device">
  <diagram name="Page-1" id="t4gs9tPtVX5zqlGiPhsi">
    <mxGraphModel dx="1117" dy="336" grid="1" gridSize="10" guides="1" tooltips="1" connect="1" arrows="1" fold="1" page="1" pageScale="1" pageWidth="2500" pageHeight="2500" math="0" shadow="0">
      <root>
        <mxCell id="0" />
        <mxCell id="1" parent="0" />
        <mxCell id="QIEU1KKEI3exDOAzTcKu-1" value="users" style="shape=table;startSize=30;container=1;collapsible=0;childLayout=tableLayout;strokeColor=#b85450;fontSize=16;fillColor=#f8cecc;gradientColor=#ea6b66;fontStyle=1;movable=1;resizable=1;rotatable=1;deletable=1;editable=1;locked=0;connectable=1;" parent="1" vertex="1">
          <mxGeometry x="440" y="60" width="520" height="630" as="geometry" />
        </mxCell>
        <mxCell id="QIEU1KKEI3exDOAzTcKu-2" value="" style="shape=tableRow;horizontal=0;startSize=0;swimlaneHead=0;swimlaneBody=0;strokeColor=inherit;top=0;left=0;bottom=0;right=0;collapsible=0;dropTarget=0;fillColor=none;points=[[0,0.5],[1,0.5]];portConstraint=eastwest;fontSize=16;movable=1;resizable=1;rotatable=1;deletable=1;editable=1;locked=0;connectable=1;" parent="QIEU1KKEI3exDOAzTcKu-1" vertex="1">
          <mxGeometry y="30" width="520" height="40" as="geometry" />
        </mxCell>
        <mxCell id="QIEU1KKEI3exDOAzTcKu-3" value="&lt;b&gt;PK&lt;/b&gt;" style="shape=partialRectangle;html=1;whiteSpace=wrap;connectable=1;strokeColor=inherit;overflow=hidden;fillColor=none;top=0;left=0;bottom=0;right=0;pointerEvents=1;fontSize=16;movable=1;resizable=1;rotatable=1;deletable=1;editable=1;locked=0;" parent="QIEU1KKEI3exDOAzTcKu-2" vertex="1">
          <mxGeometry width="87" height="40" as="geometry">
            <mxRectangle width="87" height="40" as="alternateBounds" />
          </mxGeometry>
        </mxCell>
        <mxCell id="QIEU1KKEI3exDOAzTcKu-4" value="&lt;b&gt;id&lt;/b&gt;" style="shape=partialRectangle;html=1;whiteSpace=wrap;connectable=1;strokeColor=inherit;overflow=hidden;fillColor=none;top=0;left=0;bottom=0;right=0;pointerEvents=1;fontSize=16;movable=1;resizable=1;rotatable=1;deletable=1;editable=1;locked=0;" parent="QIEU1KKEI3exDOAzTcKu-2" vertex="1">
          <mxGeometry x="87" width="170" height="40" as="geometry">
            <mxRectangle width="170" height="40" as="alternateBounds" />
          </mxGeometry>
        </mxCell>
        <mxCell id="QIEU1KKEI3exDOAzTcKu-5" value="&lt;b&gt;bigint&lt;/b&gt;" style="shape=partialRectangle;html=1;whiteSpace=wrap;connectable=1;strokeColor=inherit;overflow=hidden;fillColor=none;top=0;left=0;bottom=0;right=0;pointerEvents=1;fontSize=16;movable=1;resizable=1;rotatable=1;deletable=1;editable=1;locked=0;" parent="QIEU1KKEI3exDOAzTcKu-2" vertex="1">
          <mxGeometry x="257" width="90" height="40" as="geometry">
            <mxRectangle width="90" height="40" as="alternateBounds" />
          </mxGeometry>
        </mxCell>
        <mxCell id="QIEU1KKEI3exDOAzTcKu-6" value="&lt;b&gt;not null&lt;/b&gt;" style="shape=partialRectangle;html=1;whiteSpace=wrap;connectable=1;strokeColor=inherit;overflow=hidden;fillColor=none;top=0;left=0;bottom=0;right=0;pointerEvents=1;fontSize=16;movable=1;resizable=1;rotatable=1;deletable=1;editable=1;locked=0;" parent="QIEU1KKEI3exDOAzTcKu-2" vertex="1">
          <mxGeometry x="347" width="173" height="40" as="geometry">
            <mxRectangle width="173" height="40" as="alternateBounds" />
          </mxGeometry>
        </mxCell>
        <mxCell id="QIEU1KKEI3exDOAzTcKu-7" value="" style="shape=tableRow;horizontal=0;startSize=0;swimlaneHead=0;swimlaneBody=0;strokeColor=inherit;top=0;left=0;bottom=0;right=0;collapsible=0;dropTarget=0;fillColor=none;points=[[0,0.5],[1,0.5]];portConstraint=eastwest;fontSize=16;movable=1;resizable=1;rotatable=1;deletable=1;editable=1;locked=0;connectable=1;" parent="QIEU1KKEI3exDOAzTcKu-1" vertex="1">
          <mxGeometry y="70" width="520" height="40" as="geometry" />
        </mxCell>
        <mxCell id="QIEU1KKEI3exDOAzTcKu-8" value="unique" style="shape=partialRectangle;html=1;whiteSpace=wrap;connectable=1;strokeColor=inherit;overflow=hidden;fillColor=none;top=0;left=0;bottom=0;right=0;pointerEvents=1;fontSize=16;fontStyle=1;movable=1;resizable=1;rotatable=1;deletable=1;editable=1;locked=0;" parent="QIEU1KKEI3exDOAzTcKu-7" vertex="1">
          <mxGeometry width="87" height="40" as="geometry">
            <mxRectangle width="87" height="40" as="alternateBounds" />
          </mxGeometry>
        </mxCell>
        <mxCell id="QIEU1KKEI3exDOAzTcKu-9" value="username" style="shape=partialRectangle;html=1;whiteSpace=wrap;connectable=1;strokeColor=inherit;overflow=hidden;fillColor=none;top=0;left=0;bottom=0;right=0;pointerEvents=1;fontSize=16;movable=1;resizable=1;rotatable=1;deletable=1;editable=1;locked=0;" parent="QIEU1KKEI3exDOAzTcKu-7" vertex="1">
          <mxGeometry x="87" width="170" height="40" as="geometry">
            <mxRectangle width="170" height="40" as="alternateBounds" />
          </mxGeometry>
        </mxCell>
        <mxCell id="QIEU1KKEI3exDOAzTcKu-10" value="text" style="shape=partialRectangle;html=1;whiteSpace=wrap;connectable=1;strokeColor=inherit;overflow=hidden;fillColor=none;top=0;left=0;bottom=0;right=0;pointerEvents=1;fontSize=16;movable=1;resizable=1;rotatable=1;deletable=1;editable=1;locked=0;" parent="QIEU1KKEI3exDOAzTcKu-7" vertex="1">
          <mxGeometry x="257" width="90" height="40" as="geometry">
            <mxRectangle width="90" height="40" as="alternateBounds" />
          </mxGeometry>
        </mxCell>
        <mxCell id="QIEU1KKEI3exDOAzTcKu-11" value="not null" style="shape=partialRectangle;html=1;whiteSpace=wrap;connectable=1;strokeColor=inherit;overflow=hidden;fillColor=none;top=0;left=0;bottom=0;right=0;pointerEvents=1;fontSize=16;movable=1;resizable=1;rotatable=1;deletable=1;editable=1;locked=0;" parent="QIEU1KKEI3exDOAzTcKu-7" vertex="1">
          <mxGeometry x="347" width="173" height="40" as="geometry">
            <mxRectangle width="173" height="40" as="alternateBounds" />
          </mxGeometry>
        </mxCell>
        <mxCell id="QIEU1KKEI3exDOAzTcKu-12" style="shape=tableRow;horizontal=0;startSize=0;swimlaneHead=0;swimlaneBody=0;strokeColor=inherit;top=0;left=0;bottom=0;right=0;collapsible=0;dropTarget=0;fillColor=none;points=[[0,0.5],[1,0.5]];portConstraint=eastwest;fontSize=16;movable=1;resizable=1;rotatable=1;deletable=1;editable=1;locked=0;connectable=1;" parent="QIEU1KKEI3exDOAzTcKu-1" vertex="1">
          <mxGeometry y="110" width="520" height="40" as="geometry" />
        </mxCell>
        <mxCell id="QIEU1KKEI3exDOAzTcKu-13" value="&lt;b&gt;unique&lt;/b&gt;" style="shape=partialRectangle;html=1;whiteSpace=wrap;connectable=1;strokeColor=inherit;overflow=hidden;fillColor=none;top=0;left=0;bottom=0;right=0;pointerEvents=1;fontSize=16;movable=1;resizable=1;rotatable=1;deletable=1;editable=1;locked=0;" parent="QIEU1KKEI3exDOAzTcKu-12" vertex="1">
          <mxGeometry width="87" height="40" as="geometry">
            <mxRectangle width="87" height="40" as="alternateBounds" />
          </mxGeometry>
        </mxCell>
        <mxCell id="QIEU1KKEI3exDOAzTcKu-14" value="username_lowercase" style="shape=partialRectangle;html=1;whiteSpace=wrap;connectable=1;strokeColor=inherit;overflow=hidden;fillColor=none;top=0;left=0;bottom=0;right=0;pointerEvents=1;fontSize=16;movable=1;resizable=1;rotatable=1;deletable=1;editable=1;locked=0;" parent="QIEU1KKEI3exDOAzTcKu-12" vertex="1">
          <mxGeometry x="87" width="170" height="40" as="geometry">
            <mxRectangle width="170" height="40" as="alternateBounds" />
          </mxGeometry>
        </mxCell>
        <mxCell id="QIEU1KKEI3exDOAzTcKu-15" value="text" style="shape=partialRectangle;html=1;whiteSpace=wrap;connectable=1;strokeColor=inherit;overflow=hidden;fillColor=none;top=0;left=0;bottom=0;right=0;pointerEvents=1;fontSize=16;movable=1;resizable=1;rotatable=1;deletable=1;editable=1;locked=0;" parent="QIEU1KKEI3exDOAzTcKu-12" vertex="1">
          <mxGeometry x="257" width="90" height="40" as="geometry">
            <mxRectangle width="90" height="40" as="alternateBounds" />
          </mxGeometry>
        </mxCell>
        <mxCell id="QIEU1KKEI3exDOAzTcKu-16" value="not null" style="shape=partialRectangle;html=1;whiteSpace=wrap;connectable=1;strokeColor=inherit;overflow=hidden;fillColor=none;top=0;left=0;bottom=0;right=0;pointerEvents=1;fontSize=16;movable=1;resizable=1;rotatable=1;deletable=1;editable=1;locked=0;" parent="QIEU1KKEI3exDOAzTcKu-12" vertex="1">
          <mxGeometry x="347" width="173" height="40" as="geometry">
            <mxRectangle width="173" height="40" as="alternateBounds" />
          </mxGeometry>
        </mxCell>
        <mxCell id="QIEU1KKEI3exDOAzTcKu-17" style="shape=tableRow;horizontal=0;startSize=0;swimlaneHead=0;swimlaneBody=0;strokeColor=inherit;top=0;left=0;bottom=0;right=0;collapsible=0;dropTarget=0;fillColor=none;points=[[0,0.5],[1,0.5]];portConstraint=eastwest;fontSize=16;movable=1;resizable=1;rotatable=1;deletable=1;editable=1;locked=0;connectable=1;" parent="QIEU1KKEI3exDOAzTcKu-1" vertex="1">
          <mxGeometry y="150" width="520" height="40" as="geometry" />
        </mxCell>
        <mxCell id="QIEU1KKEI3exDOAzTcKu-18" value="&lt;b&gt;unique&lt;/b&gt;" style="shape=partialRectangle;html=1;whiteSpace=wrap;connectable=1;strokeColor=inherit;overflow=hidden;fillColor=none;top=0;left=0;bottom=0;right=0;pointerEvents=1;fontSize=16;movable=1;resizable=1;rotatable=1;deletable=1;editable=1;locked=0;" parent="QIEU1KKEI3exDOAzTcKu-17" vertex="1">
          <mxGeometry width="87" height="40" as="geometry">
            <mxRectangle width="87" height="40" as="alternateBounds" />
          </mxGeometry>
        </mxCell>
        <mxCell id="QIEU1KKEI3exDOAzTcKu-19" value="email" style="shape=partialRectangle;html=1;whiteSpace=wrap;connectable=1;strokeColor=inherit;overflow=hidden;fillColor=none;top=0;left=0;bottom=0;right=0;pointerEvents=1;fontSize=16;movable=1;resizable=1;rotatable=1;deletable=1;editable=1;locked=0;" parent="QIEU1KKEI3exDOAzTcKu-17" vertex="1">
          <mxGeometry x="87" width="170" height="40" as="geometry">
            <mxRectangle width="170" height="40" as="alternateBounds" />
          </mxGeometry>
        </mxCell>
        <mxCell id="QIEU1KKEI3exDOAzTcKu-20" value="text" style="shape=partialRectangle;html=1;whiteSpace=wrap;connectable=1;strokeColor=inherit;overflow=hidden;fillColor=none;top=0;left=0;bottom=0;right=0;pointerEvents=1;fontSize=16;movable=1;resizable=1;rotatable=1;deletable=1;editable=1;locked=0;" parent="QIEU1KKEI3exDOAzTcKu-17" vertex="1">
          <mxGeometry x="257" width="90" height="40" as="geometry">
            <mxRectangle width="90" height="40" as="alternateBounds" />
          </mxGeometry>
        </mxCell>
        <mxCell id="QIEU1KKEI3exDOAzTcKu-21" value="not null" style="shape=partialRectangle;html=1;whiteSpace=wrap;connectable=1;strokeColor=inherit;overflow=hidden;fillColor=none;top=0;left=0;bottom=0;right=0;pointerEvents=1;fontSize=16;movable=1;resizable=1;rotatable=1;deletable=1;editable=1;locked=0;" parent="QIEU1KKEI3exDOAzTcKu-17" vertex="1">
          <mxGeometry x="347" width="173" height="40" as="geometry">
            <mxRectangle width="173" height="40" as="alternateBounds" />
          </mxGeometry>
        </mxCell>
        <mxCell id="QIEU1KKEI3exDOAzTcKu-22" style="shape=tableRow;horizontal=0;startSize=0;swimlaneHead=0;swimlaneBody=0;strokeColor=inherit;top=0;left=0;bottom=0;right=0;collapsible=0;dropTarget=0;fillColor=none;points=[[0,0.5],[1,0.5]];portConstraint=eastwest;fontSize=16;movable=1;resizable=1;rotatable=1;deletable=1;editable=1;locked=0;connectable=1;" parent="QIEU1KKEI3exDOAzTcKu-1" vertex="1">
          <mxGeometry y="190" width="520" height="40" as="geometry" />
        </mxCell>
        <mxCell id="QIEU1KKEI3exDOAzTcKu-23" style="shape=partialRectangle;html=1;whiteSpace=wrap;connectable=1;strokeColor=inherit;overflow=hidden;fillColor=none;top=0;left=0;bottom=0;right=0;pointerEvents=1;fontSize=16;movable=1;resizable=1;rotatable=1;deletable=1;editable=1;locked=0;" parent="QIEU1KKEI3exDOAzTcKu-22" vertex="1">
          <mxGeometry width="87" height="40" as="geometry">
            <mxRectangle width="87" height="40" as="alternateBounds" />
          </mxGeometry>
        </mxCell>
        <mxCell id="QIEU1KKEI3exDOAzTcKu-24" value="password" style="shape=partialRectangle;html=1;whiteSpace=wrap;connectable=1;strokeColor=inherit;overflow=hidden;fillColor=none;top=0;left=0;bottom=0;right=0;pointerEvents=1;fontSize=16;movable=1;resizable=1;rotatable=1;deletable=1;editable=1;locked=0;" parent="QIEU1KKEI3exDOAzTcKu-22" vertex="1">
          <mxGeometry x="87" width="170" height="40" as="geometry">
            <mxRectangle width="170" height="40" as="alternateBounds" />
          </mxGeometry>
        </mxCell>
        <mxCell id="QIEU1KKEI3exDOAzTcKu-25" value="text" style="shape=partialRectangle;html=1;whiteSpace=wrap;connectable=1;strokeColor=inherit;overflow=hidden;fillColor=none;top=0;left=0;bottom=0;right=0;pointerEvents=1;fontSize=16;movable=1;resizable=1;rotatable=1;deletable=1;editable=1;locked=0;" parent="QIEU1KKEI3exDOAzTcKu-22" vertex="1">
          <mxGeometry x="257" width="90" height="40" as="geometry">
            <mxRectangle width="90" height="40" as="alternateBounds" />
          </mxGeometry>
        </mxCell>
        <mxCell id="QIEU1KKEI3exDOAzTcKu-26" value="not null" style="shape=partialRectangle;html=1;whiteSpace=wrap;connectable=1;strokeColor=inherit;overflow=hidden;fillColor=none;top=0;left=0;bottom=0;right=0;pointerEvents=1;fontSize=16;movable=1;resizable=1;rotatable=1;deletable=1;editable=1;locked=0;" parent="QIEU1KKEI3exDOAzTcKu-22" vertex="1">
          <mxGeometry x="347" width="173" height="40" as="geometry">
            <mxRectangle width="173" height="40" as="alternateBounds" />
          </mxGeometry>
        </mxCell>
        <mxCell id="QIEU1KKEI3exDOAzTcKu-27" style="shape=tableRow;horizontal=0;startSize=0;swimlaneHead=0;swimlaneBody=0;strokeColor=inherit;top=0;left=0;bottom=0;right=0;collapsible=0;dropTarget=0;fillColor=none;points=[[0,0.5],[1,0.5]];portConstraint=eastwest;fontSize=16;movable=1;resizable=1;rotatable=1;deletable=1;editable=1;locked=0;connectable=1;" parent="QIEU1KKEI3exDOAzTcKu-1" vertex="1">
          <mxGeometry y="230" width="520" height="40" as="geometry" />
        </mxCell>
        <mxCell id="QIEU1KKEI3exDOAzTcKu-28" style="shape=partialRectangle;html=1;whiteSpace=wrap;connectable=1;strokeColor=inherit;overflow=hidden;fillColor=none;top=0;left=0;bottom=0;right=0;pointerEvents=1;fontSize=16;movable=1;resizable=1;rotatable=1;deletable=1;editable=1;locked=0;" parent="QIEU1KKEI3exDOAzTcKu-27" vertex="1">
          <mxGeometry width="87" height="40" as="geometry">
            <mxRectangle width="87" height="40" as="alternateBounds" />
          </mxGeometry>
        </mxCell>
        <mxCell id="QIEU1KKEI3exDOAzTcKu-29" value="first_name" style="shape=partialRectangle;html=1;whiteSpace=wrap;connectable=1;strokeColor=inherit;overflow=hidden;fillColor=none;top=0;left=0;bottom=0;right=0;pointerEvents=1;fontSize=16;movable=1;resizable=1;rotatable=1;deletable=1;editable=1;locked=0;" parent="QIEU1KKEI3exDOAzTcKu-27" vertex="1">
          <mxGeometry x="87" width="170" height="40" as="geometry">
            <mxRectangle width="170" height="40" as="alternateBounds" />
          </mxGeometry>
        </mxCell>
        <mxCell id="QIEU1KKEI3exDOAzTcKu-30" value="text" style="shape=partialRectangle;html=1;whiteSpace=wrap;connectable=1;strokeColor=inherit;overflow=hidden;fillColor=none;top=0;left=0;bottom=0;right=0;pointerEvents=1;fontSize=16;movable=1;resizable=1;rotatable=1;deletable=1;editable=1;locked=0;" parent="QIEU1KKEI3exDOAzTcKu-27" vertex="1">
          <mxGeometry x="257" width="90" height="40" as="geometry">
            <mxRectangle width="90" height="40" as="alternateBounds" />
          </mxGeometry>
        </mxCell>
        <mxCell id="QIEU1KKEI3exDOAzTcKu-31" value="nullable" style="shape=partialRectangle;html=1;whiteSpace=wrap;connectable=1;strokeColor=inherit;overflow=hidden;fillColor=none;top=0;left=0;bottom=0;right=0;pointerEvents=1;fontSize=16;movable=1;resizable=1;rotatable=1;deletable=1;editable=1;locked=0;" parent="QIEU1KKEI3exDOAzTcKu-27" vertex="1">
          <mxGeometry x="347" width="173" height="40" as="geometry">
            <mxRectangle width="173" height="40" as="alternateBounds" />
          </mxGeometry>
        </mxCell>
        <mxCell id="QIEU1KKEI3exDOAzTcKu-32" style="shape=tableRow;horizontal=0;startSize=0;swimlaneHead=0;swimlaneBody=0;strokeColor=inherit;top=0;left=0;bottom=0;right=0;collapsible=0;dropTarget=0;fillColor=none;points=[[0,0.5],[1,0.5]];portConstraint=eastwest;fontSize=16;movable=1;resizable=1;rotatable=1;deletable=1;editable=1;locked=0;connectable=1;" parent="QIEU1KKEI3exDOAzTcKu-1" vertex="1">
          <mxGeometry y="270" width="520" height="40" as="geometry" />
        </mxCell>
        <mxCell id="QIEU1KKEI3exDOAzTcKu-33" style="shape=partialRectangle;html=1;whiteSpace=wrap;connectable=1;strokeColor=inherit;overflow=hidden;fillColor=none;top=0;left=0;bottom=0;right=0;pointerEvents=1;fontSize=16;movable=1;resizable=1;rotatable=1;deletable=1;editable=1;locked=0;" parent="QIEU1KKEI3exDOAzTcKu-32" vertex="1">
          <mxGeometry width="87" height="40" as="geometry">
            <mxRectangle width="87" height="40" as="alternateBounds" />
          </mxGeometry>
        </mxCell>
        <mxCell id="QIEU1KKEI3exDOAzTcKu-34" value="last_name" style="shape=partialRectangle;html=1;whiteSpace=wrap;connectable=1;strokeColor=inherit;overflow=hidden;fillColor=none;top=0;left=0;bottom=0;right=0;pointerEvents=1;fontSize=16;movable=1;resizable=1;rotatable=1;deletable=1;editable=1;locked=0;" parent="QIEU1KKEI3exDOAzTcKu-32" vertex="1">
          <mxGeometry x="87" width="170" height="40" as="geometry">
            <mxRectangle width="170" height="40" as="alternateBounds" />
          </mxGeometry>
        </mxCell>
        <mxCell id="QIEU1KKEI3exDOAzTcKu-35" value="text" style="shape=partialRectangle;html=1;whiteSpace=wrap;connectable=1;strokeColor=inherit;overflow=hidden;fillColor=none;top=0;left=0;bottom=0;right=0;pointerEvents=1;fontSize=16;movable=1;resizable=1;rotatable=1;deletable=1;editable=1;locked=0;" parent="QIEU1KKEI3exDOAzTcKu-32" vertex="1">
          <mxGeometry x="257" width="90" height="40" as="geometry">
            <mxRectangle width="90" height="40" as="alternateBounds" />
          </mxGeometry>
        </mxCell>
        <mxCell id="QIEU1KKEI3exDOAzTcKu-36" value="nullable" style="shape=partialRectangle;html=1;whiteSpace=wrap;connectable=1;strokeColor=inherit;overflow=hidden;fillColor=none;top=0;left=0;bottom=0;right=0;pointerEvents=1;fontSize=16;movable=1;resizable=1;rotatable=1;deletable=1;editable=1;locked=0;" parent="QIEU1KKEI3exDOAzTcKu-32" vertex="1">
          <mxGeometry x="347" width="173" height="40" as="geometry">
            <mxRectangle width="173" height="40" as="alternateBounds" />
          </mxGeometry>
        </mxCell>
        <mxCell id="QIEU1KKEI3exDOAzTcKu-37" style="shape=tableRow;horizontal=0;startSize=0;swimlaneHead=0;swimlaneBody=0;strokeColor=inherit;top=0;left=0;bottom=0;right=0;collapsible=0;dropTarget=0;fillColor=none;points=[[0,0.5],[1,0.5]];portConstraint=eastwest;fontSize=16;movable=1;resizable=1;rotatable=1;deletable=1;editable=1;locked=0;connectable=1;" parent="QIEU1KKEI3exDOAzTcKu-1" vertex="1">
          <mxGeometry y="310" width="520" height="40" as="geometry" />
        </mxCell>
        <mxCell id="QIEU1KKEI3exDOAzTcKu-38" style="shape=partialRectangle;html=1;whiteSpace=wrap;connectable=1;strokeColor=inherit;overflow=hidden;fillColor=none;top=0;left=0;bottom=0;right=0;pointerEvents=1;fontSize=16;movable=1;resizable=1;rotatable=1;deletable=1;editable=1;locked=0;" parent="QIEU1KKEI3exDOAzTcKu-37" vertex="1">
          <mxGeometry width="87" height="40" as="geometry">
            <mxRectangle width="87" height="40" as="alternateBounds" />
          </mxGeometry>
        </mxCell>
        <mxCell id="QIEU1KKEI3exDOAzTcKu-39" value="avatar" style="shape=partialRectangle;html=1;whiteSpace=wrap;connectable=1;strokeColor=inherit;overflow=hidden;fillColor=none;top=0;left=0;bottom=0;right=0;pointerEvents=1;fontSize=16;movable=1;resizable=1;rotatable=1;deletable=1;editable=1;locked=0;" parent="QIEU1KKEI3exDOAzTcKu-37" vertex="1">
          <mxGeometry x="87" width="170" height="40" as="geometry">
            <mxRectangle width="170" height="40" as="alternateBounds" />
          </mxGeometry>
        </mxCell>
        <mxCell id="QIEU1KKEI3exDOAzTcKu-40" value="boolean" style="shape=partialRectangle;html=1;whiteSpace=wrap;connectable=1;strokeColor=inherit;overflow=hidden;fillColor=none;top=0;left=0;bottom=0;right=0;pointerEvents=1;fontSize=16;movable=1;resizable=1;rotatable=1;deletable=1;editable=1;locked=0;" parent="QIEU1KKEI3exDOAzTcKu-37" vertex="1">
          <mxGeometry x="257" width="90" height="40" as="geometry">
            <mxRectangle width="90" height="40" as="alternateBounds" />
          </mxGeometry>
        </mxCell>
        <mxCell id="QIEU1KKEI3exDOAzTcKu-41" value="not null default false" style="shape=partialRectangle;html=1;whiteSpace=wrap;connectable=1;strokeColor=inherit;overflow=hidden;fillColor=none;top=0;left=0;bottom=0;right=0;pointerEvents=1;fontSize=16;movable=1;resizable=1;rotatable=1;deletable=1;editable=1;locked=0;" parent="QIEU1KKEI3exDOAzTcKu-37" vertex="1">
          <mxGeometry x="347" width="173" height="40" as="geometry">
            <mxRectangle width="173" height="40" as="alternateBounds" />
          </mxGeometry>
        </mxCell>
        <mxCell id="QIEU1KKEI3exDOAzTcKu-42" style="shape=tableRow;horizontal=0;startSize=0;swimlaneHead=0;swimlaneBody=0;strokeColor=inherit;top=0;left=0;bottom=0;right=0;collapsible=0;dropTarget=0;fillColor=none;points=[[0,0.5],[1,0.5]];portConstraint=eastwest;fontSize=16;movable=1;resizable=1;rotatable=1;deletable=1;editable=1;locked=0;connectable=1;" parent="QIEU1KKEI3exDOAzTcKu-1" vertex="1">
          <mxGeometry y="350" width="520" height="40" as="geometry" />
        </mxCell>
        <mxCell id="QIEU1KKEI3exDOAzTcKu-43" style="shape=partialRectangle;html=1;whiteSpace=wrap;connectable=1;strokeColor=inherit;overflow=hidden;fillColor=none;top=0;left=0;bottom=0;right=0;pointerEvents=1;fontSize=16;movable=1;resizable=1;rotatable=1;deletable=1;editable=1;locked=0;" parent="QIEU1KKEI3exDOAzTcKu-42" vertex="1">
          <mxGeometry width="87" height="40" as="geometry">
            <mxRectangle width="87" height="40" as="alternateBounds" />
          </mxGeometry>
        </mxCell>
        <mxCell id="QIEU1KKEI3exDOAzTcKu-44" value="token" style="shape=partialRectangle;html=1;whiteSpace=wrap;connectable=1;strokeColor=inherit;overflow=hidden;fillColor=none;top=0;left=0;bottom=0;right=0;pointerEvents=1;fontSize=16;movable=1;resizable=1;rotatable=1;deletable=1;editable=1;locked=0;" parent="QIEU1KKEI3exDOAzTcKu-42" vertex="1">
          <mxGeometry x="87" width="170" height="40" as="geometry">
            <mxRectangle width="170" height="40" as="alternateBounds" />
          </mxGeometry>
        </mxCell>
        <mxCell id="QIEU1KKEI3exDOAzTcKu-45" value="text" style="shape=partialRectangle;html=1;whiteSpace=wrap;connectable=1;strokeColor=inherit;overflow=hidden;fillColor=none;top=0;left=0;bottom=0;right=0;pointerEvents=1;fontSize=16;movable=1;resizable=1;rotatable=1;deletable=1;editable=1;locked=0;" parent="QIEU1KKEI3exDOAzTcKu-42" vertex="1">
          <mxGeometry x="257" width="90" height="40" as="geometry">
            <mxRectangle width="90" height="40" as="alternateBounds" />
          </mxGeometry>
        </mxCell>
        <mxCell id="QIEU1KKEI3exDOAzTcKu-46" value="not null" style="shape=partialRectangle;html=1;whiteSpace=wrap;connectable=1;strokeColor=inherit;overflow=hidden;fillColor=none;top=0;left=0;bottom=0;right=0;pointerEvents=1;fontSize=16;movable=1;resizable=1;rotatable=1;deletable=1;editable=1;locked=0;" parent="QIEU1KKEI3exDOAzTcKu-42" vertex="1">
          <mxGeometry x="347" width="173" height="40" as="geometry">
            <mxRectangle width="173" height="40" as="alternateBounds" />
          </mxGeometry>
        </mxCell>
        <mxCell id="QIEU1KKEI3exDOAzTcKu-47" style="shape=tableRow;horizontal=0;startSize=0;swimlaneHead=0;swimlaneBody=0;strokeColor=inherit;top=0;left=0;bottom=0;right=0;collapsible=0;dropTarget=0;fillColor=none;points=[[0,0.5],[1,0.5]];portConstraint=eastwest;fontSize=16;movable=1;resizable=1;rotatable=1;deletable=1;editable=1;locked=0;connectable=1;" parent="QIEU1KKEI3exDOAzTcKu-1" vertex="1">
          <mxGeometry y="390" width="520" height="40" as="geometry" />
        </mxCell>
        <mxCell id="QIEU1KKEI3exDOAzTcKu-48" style="shape=partialRectangle;html=1;whiteSpace=wrap;connectable=1;strokeColor=inherit;overflow=hidden;fillColor=none;top=0;left=0;bottom=0;right=0;pointerEvents=1;fontSize=16;movable=1;resizable=1;rotatable=1;deletable=1;editable=1;locked=0;" parent="QIEU1KKEI3exDOAzTcKu-47" vertex="1">
          <mxGeometry width="87" height="40" as="geometry">
            <mxRectangle width="87" height="40" as="alternateBounds" />
          </mxGeometry>
        </mxCell>
        <mxCell id="QIEU1KKEI3exDOAzTcKu-49" value="verified_email" style="shape=partialRectangle;html=1;whiteSpace=wrap;connectable=1;strokeColor=inherit;overflow=hidden;fillColor=none;top=0;left=0;bottom=0;right=0;pointerEvents=1;fontSize=16;movable=1;resizable=1;rotatable=1;deletable=1;editable=1;locked=0;" parent="QIEU1KKEI3exDOAzTcKu-47" vertex="1">
          <mxGeometry x="87" width="170" height="40" as="geometry">
            <mxRectangle width="170" height="40" as="alternateBounds" />
          </mxGeometry>
        </mxCell>
        <mxCell id="QIEU1KKEI3exDOAzTcKu-50" value="boolean" style="shape=partialRectangle;html=1;whiteSpace=wrap;connectable=1;strokeColor=inherit;overflow=hidden;fillColor=none;top=0;left=0;bottom=0;right=0;pointerEvents=1;fontSize=16;movable=1;resizable=1;rotatable=1;deletable=1;editable=1;locked=0;" parent="QIEU1KKEI3exDOAzTcKu-47" vertex="1">
          <mxGeometry x="257" width="90" height="40" as="geometry">
            <mxRectangle width="90" height="40" as="alternateBounds" />
          </mxGeometry>
        </mxCell>
        <mxCell id="QIEU1KKEI3exDOAzTcKu-51" value="not null default false" style="shape=partialRectangle;html=1;whiteSpace=wrap;connectable=1;strokeColor=inherit;overflow=hidden;fillColor=none;top=0;left=0;bottom=0;right=0;pointerEvents=1;fontSize=16;movable=1;resizable=1;rotatable=1;deletable=1;editable=1;locked=0;" parent="QIEU1KKEI3exDOAzTcKu-47" vertex="1">
          <mxGeometry x="347" width="173" height="40" as="geometry">
            <mxRectangle width="173" height="40" as="alternateBounds" />
          </mxGeometry>
        </mxCell>
        <mxCell id="QIEU1KKEI3exDOAzTcKu-52" style="shape=tableRow;horizontal=0;startSize=0;swimlaneHead=0;swimlaneBody=0;strokeColor=inherit;top=0;left=0;bottom=0;right=0;collapsible=0;dropTarget=0;fillColor=none;points=[[0,0.5],[1,0.5]];portConstraint=eastwest;fontSize=16;movable=1;resizable=1;rotatable=1;deletable=1;editable=1;locked=0;connectable=1;" parent="QIEU1KKEI3exDOAzTcKu-1" vertex="1">
          <mxGeometry y="430" width="520" height="40" as="geometry" />
        </mxCell>
        <mxCell id="QIEU1KKEI3exDOAzTcKu-53" style="shape=partialRectangle;html=1;whiteSpace=wrap;connectable=1;strokeColor=inherit;overflow=hidden;fillColor=none;top=0;left=0;bottom=0;right=0;pointerEvents=1;fontSize=16;movable=1;resizable=1;rotatable=1;deletable=1;editable=1;locked=0;" parent="QIEU1KKEI3exDOAzTcKu-52" vertex="1">
          <mxGeometry width="87" height="40" as="geometry">
            <mxRectangle width="87" height="40" as="alternateBounds" />
          </mxGeometry>
        </mxCell>
        <mxCell id="QIEU1KKEI3exDOAzTcKu-54" value="token_expiration" style="shape=partialRectangle;html=1;whiteSpace=wrap;connectable=1;strokeColor=inherit;overflow=hidden;fillColor=none;top=0;left=0;bottom=0;right=0;pointerEvents=1;fontSize=16;movable=1;resizable=1;rotatable=1;deletable=1;editable=1;locked=0;" parent="QIEU1KKEI3exDOAzTcKu-52" vertex="1">
          <mxGeometry x="87" width="170" height="40" as="geometry">
            <mxRectangle width="170" height="40" as="alternateBounds" />
          </mxGeometry>
        </mxCell>
        <mxCell id="QIEU1KKEI3exDOAzTcKu-55" value="text" style="shape=partialRectangle;html=1;whiteSpace=wrap;connectable=1;strokeColor=inherit;overflow=hidden;fillColor=none;top=0;left=0;bottom=0;right=0;pointerEvents=1;fontSize=16;movable=1;resizable=1;rotatable=1;deletable=1;editable=1;locked=0;" parent="QIEU1KKEI3exDOAzTcKu-52" vertex="1">
          <mxGeometry x="257" width="90" height="40" as="geometry">
            <mxRectangle width="90" height="40" as="alternateBounds" />
          </mxGeometry>
        </mxCell>
        <mxCell id="QIEU1KKEI3exDOAzTcKu-56" value="not null" style="shape=partialRectangle;html=1;whiteSpace=wrap;connectable=1;strokeColor=inherit;overflow=hidden;fillColor=none;top=0;left=0;bottom=0;right=0;pointerEvents=1;fontSize=16;movable=1;resizable=1;rotatable=1;deletable=1;editable=1;locked=0;" parent="QIEU1KKEI3exDOAzTcKu-52" vertex="1">
          <mxGeometry x="347" width="173" height="40" as="geometry">
            <mxRectangle width="173" height="40" as="alternateBounds" />
          </mxGeometry>
        </mxCell>
        <mxCell id="QIEU1KKEI3exDOAzTcKu-57" style="shape=tableRow;horizontal=0;startSize=0;swimlaneHead=0;swimlaneBody=0;strokeColor=inherit;top=0;left=0;bottom=0;right=0;collapsible=0;dropTarget=0;fillColor=none;points=[[0,0.5],[1,0.5]];portConstraint=eastwest;fontSize=16;movable=1;resizable=1;rotatable=1;deletable=1;editable=1;locked=0;connectable=1;" parent="QIEU1KKEI3exDOAzTcKu-1" vertex="1">
          <mxGeometry y="470" width="520" height="40" as="geometry" />
        </mxCell>
        <mxCell id="QIEU1KKEI3exDOAzTcKu-58" style="shape=partialRectangle;html=1;whiteSpace=wrap;connectable=1;strokeColor=inherit;overflow=hidden;fillColor=none;top=0;left=0;bottom=0;right=0;pointerEvents=1;fontSize=16;movable=1;resizable=1;rotatable=1;deletable=1;editable=1;locked=0;" parent="QIEU1KKEI3exDOAzTcKu-57" vertex="1">
          <mxGeometry width="87" height="40" as="geometry">
            <mxRectangle width="87" height="40" as="alternateBounds" />
          </mxGeometry>
        </mxCell>
        <mxCell id="QIEU1KKEI3exDOAzTcKu-59" value="date_of_birth" style="shape=partialRectangle;html=1;whiteSpace=wrap;connectable=1;strokeColor=inherit;overflow=hidden;fillColor=none;top=0;left=0;bottom=0;right=0;pointerEvents=1;fontSize=16;movable=1;resizable=1;rotatable=1;deletable=1;editable=1;locked=0;" parent="QIEU1KKEI3exDOAzTcKu-57" vertex="1">
          <mxGeometry x="87" width="170" height="40" as="geometry">
            <mxRectangle width="170" height="40" as="alternateBounds" />
          </mxGeometry>
        </mxCell>
        <mxCell id="QIEU1KKEI3exDOAzTcKu-60" value="text" style="shape=partialRectangle;html=1;whiteSpace=wrap;connectable=1;strokeColor=inherit;overflow=hidden;fillColor=none;top=0;left=0;bottom=0;right=0;pointerEvents=1;fontSize=16;movable=1;resizable=1;rotatable=1;deletable=1;editable=1;locked=0;" parent="QIEU1KKEI3exDOAzTcKu-57" vertex="1">
          <mxGeometry x="257" width="90" height="40" as="geometry">
            <mxRectangle width="90" height="40" as="alternateBounds" />
          </mxGeometry>
        </mxCell>
        <mxCell id="QIEU1KKEI3exDOAzTcKu-61" value="not null" style="shape=partialRectangle;html=1;whiteSpace=wrap;connectable=1;strokeColor=inherit;overflow=hidden;fillColor=none;top=0;left=0;bottom=0;right=0;pointerEvents=1;fontSize=16;movable=1;resizable=1;rotatable=1;deletable=1;editable=1;locked=0;" parent="QIEU1KKEI3exDOAzTcKu-57" vertex="1">
          <mxGeometry x="347" width="173" height="40" as="geometry">
            <mxRectangle width="173" height="40" as="alternateBounds" />
          </mxGeometry>
        </mxCell>
        <mxCell id="QIEU1KKEI3exDOAzTcKu-62" style="shape=tableRow;horizontal=0;startSize=0;swimlaneHead=0;swimlaneBody=0;strokeColor=inherit;top=0;left=0;bottom=0;right=0;collapsible=0;dropTarget=0;fillColor=none;points=[[0,0.5],[1,0.5]];portConstraint=eastwest;fontSize=16;movable=1;resizable=1;rotatable=1;deletable=1;editable=1;locked=0;connectable=1;" parent="QIEU1KKEI3exDOAzTcKu-1" vertex="1">
          <mxGeometry y="510" width="520" height="40" as="geometry" />
        </mxCell>
        <mxCell id="QIEU1KKEI3exDOAzTcKu-63" style="shape=partialRectangle;html=1;whiteSpace=wrap;connectable=1;strokeColor=inherit;overflow=hidden;fillColor=none;top=0;left=0;bottom=0;right=0;pointerEvents=1;fontSize=16;movable=1;resizable=1;rotatable=1;deletable=1;editable=1;locked=0;" parent="QIEU1KKEI3exDOAzTcKu-62" vertex="1">
          <mxGeometry width="87" height="40" as="geometry">
            <mxRectangle width="87" height="40" as="alternateBounds" />
          </mxGeometry>
        </mxCell>
        <mxCell id="QIEU1KKEI3exDOAzTcKu-64" value="gender" style="shape=partialRectangle;html=1;whiteSpace=wrap;connectable=1;strokeColor=inherit;overflow=hidden;fillColor=none;top=0;left=0;bottom=0;right=0;pointerEvents=1;fontSize=16;movable=1;resizable=1;rotatable=1;deletable=1;editable=1;locked=0;" parent="QIEU1KKEI3exDOAzTcKu-62" vertex="1">
          <mxGeometry x="87" width="170" height="40" as="geometry">
            <mxRectangle width="170" height="40" as="alternateBounds" />
          </mxGeometry>
        </mxCell>
        <mxCell id="QIEU1KKEI3exDOAzTcKu-65" value="text" style="shape=partialRectangle;html=1;whiteSpace=wrap;connectable=1;strokeColor=inherit;overflow=hidden;fillColor=none;top=0;left=0;bottom=0;right=0;pointerEvents=1;fontSize=16;movable=1;resizable=1;rotatable=1;deletable=1;editable=1;locked=0;" parent="QIEU1KKEI3exDOAzTcKu-62" vertex="1">
          <mxGeometry x="257" width="90" height="40" as="geometry">
            <mxRectangle width="90" height="40" as="alternateBounds" />
          </mxGeometry>
        </mxCell>
        <mxCell id="QIEU1KKEI3exDOAzTcKu-66" value="not null" style="shape=partialRectangle;html=1;whiteSpace=wrap;connectable=1;strokeColor=inherit;overflow=hidden;fillColor=none;top=0;left=0;bottom=0;right=0;pointerEvents=1;fontSize=16;movable=1;resizable=1;rotatable=1;deletable=1;editable=1;locked=0;" parent="QIEU1KKEI3exDOAzTcKu-62" vertex="1">
          <mxGeometry x="347" width="173" height="40" as="geometry">
            <mxRectangle width="173" height="40" as="alternateBounds" />
          </mxGeometry>
        </mxCell>
        <mxCell id="QIEU1KKEI3exDOAzTcKu-67" style="shape=tableRow;horizontal=0;startSize=0;swimlaneHead=0;swimlaneBody=0;strokeColor=inherit;top=0;left=0;bottom=0;right=0;collapsible=0;dropTarget=0;fillColor=none;points=[[0,0.5],[1,0.5]];portConstraint=eastwest;fontSize=16;movable=1;resizable=1;rotatable=1;deletable=1;editable=1;locked=0;connectable=1;" parent="QIEU1KKEI3exDOAzTcKu-1" vertex="1">
          <mxGeometry y="550" width="520" height="40" as="geometry" />
        </mxCell>
        <mxCell id="QIEU1KKEI3exDOAzTcKu-68" style="shape=partialRectangle;html=1;whiteSpace=wrap;connectable=1;strokeColor=inherit;overflow=hidden;fillColor=none;top=0;left=0;bottom=0;right=0;pointerEvents=1;fontSize=16;movable=1;resizable=1;rotatable=1;deletable=1;editable=1;locked=0;" parent="QIEU1KKEI3exDOAzTcKu-67" vertex="1">
          <mxGeometry width="87" height="40" as="geometry">
            <mxRectangle width="87" height="40" as="alternateBounds" />
          </mxGeometry>
        </mxCell>
        <mxCell id="QIEU1KKEI3exDOAzTcKu-69" value="created_at" style="shape=partialRectangle;html=1;whiteSpace=wrap;connectable=1;strokeColor=inherit;overflow=hidden;fillColor=none;top=0;left=0;bottom=0;right=0;pointerEvents=1;fontSize=16;movable=1;resizable=1;rotatable=1;deletable=1;editable=1;locked=0;" parent="QIEU1KKEI3exDOAzTcKu-67" vertex="1">
          <mxGeometry x="87" width="170" height="40" as="geometry">
            <mxRectangle width="170" height="40" as="alternateBounds" />
          </mxGeometry>
        </mxCell>
        <mxCell id="QIEU1KKEI3exDOAzTcKu-70" value="text" style="shape=partialRectangle;html=1;whiteSpace=wrap;connectable=1;strokeColor=inherit;overflow=hidden;fillColor=none;top=0;left=0;bottom=0;right=0;pointerEvents=1;fontSize=16;movable=1;resizable=1;rotatable=1;deletable=1;editable=1;locked=0;" parent="QIEU1KKEI3exDOAzTcKu-67" vertex="1">
          <mxGeometry x="257" width="90" height="40" as="geometry">
            <mxRectangle width="90" height="40" as="alternateBounds" />
          </mxGeometry>
        </mxCell>
        <mxCell id="QIEU1KKEI3exDOAzTcKu-71" value="not null" style="shape=partialRectangle;html=1;whiteSpace=wrap;connectable=1;strokeColor=inherit;overflow=hidden;fillColor=none;top=0;left=0;bottom=0;right=0;pointerEvents=1;fontSize=16;movable=1;resizable=1;rotatable=1;deletable=1;editable=1;locked=0;" parent="QIEU1KKEI3exDOAzTcKu-67" vertex="1">
          <mxGeometry x="347" width="173" height="40" as="geometry">
            <mxRectangle width="173" height="40" as="alternateBounds" />
          </mxGeometry>
        </mxCell>
        <mxCell id="QIEU1KKEI3exDOAzTcKu-72" style="shape=tableRow;horizontal=0;startSize=0;swimlaneHead=0;swimlaneBody=0;strokeColor=inherit;top=0;left=0;bottom=0;right=0;collapsible=0;dropTarget=0;fillColor=none;points=[[0,0.5],[1,0.5]];portConstraint=eastwest;fontSize=16;movable=1;resizable=1;rotatable=1;deletable=1;editable=1;locked=0;connectable=1;" parent="QIEU1KKEI3exDOAzTcKu-1" vertex="1">
          <mxGeometry y="590" width="520" height="40" as="geometry" />
        </mxCell>
        <mxCell id="QIEU1KKEI3exDOAzTcKu-73" style="shape=partialRectangle;html=1;whiteSpace=wrap;connectable=1;strokeColor=inherit;overflow=hidden;fillColor=none;top=0;left=0;bottom=0;right=0;pointerEvents=1;fontSize=16;movable=1;resizable=1;rotatable=1;deletable=1;editable=1;locked=0;" parent="QIEU1KKEI3exDOAzTcKu-72" vertex="1">
          <mxGeometry width="87" height="40" as="geometry">
            <mxRectangle width="87" height="40" as="alternateBounds" />
          </mxGeometry>
        </mxCell>
        <mxCell id="QIEU1KKEI3exDOAzTcKu-74" value="updated_at" style="shape=partialRectangle;html=1;whiteSpace=wrap;connectable=1;strokeColor=inherit;overflow=hidden;fillColor=none;top=0;left=0;bottom=0;right=0;pointerEvents=1;fontSize=16;movable=1;resizable=1;rotatable=1;deletable=1;editable=1;locked=0;" parent="QIEU1KKEI3exDOAzTcKu-72" vertex="1">
          <mxGeometry x="87" width="170" height="40" as="geometry">
            <mxRectangle width="170" height="40" as="alternateBounds" />
          </mxGeometry>
        </mxCell>
        <mxCell id="QIEU1KKEI3exDOAzTcKu-75" value="text" style="shape=partialRectangle;html=1;whiteSpace=wrap;connectable=1;strokeColor=inherit;overflow=hidden;fillColor=none;top=0;left=0;bottom=0;right=0;pointerEvents=1;fontSize=16;movable=1;resizable=1;rotatable=1;deletable=1;editable=1;locked=0;" parent="QIEU1KKEI3exDOAzTcKu-72" vertex="1">
          <mxGeometry x="257" width="90" height="40" as="geometry">
            <mxRectangle width="90" height="40" as="alternateBounds" />
          </mxGeometry>
        </mxCell>
        <mxCell id="QIEU1KKEI3exDOAzTcKu-76" value="not null" style="shape=partialRectangle;html=1;whiteSpace=wrap;connectable=1;strokeColor=inherit;overflow=hidden;fillColor=none;top=0;left=0;bottom=0;right=0;pointerEvents=1;fontSize=16;movable=1;resizable=1;rotatable=1;deletable=1;editable=1;locked=0;" parent="QIEU1KKEI3exDOAzTcKu-72" vertex="1">
          <mxGeometry x="347" width="173" height="40" as="geometry">
            <mxRectangle width="173" height="40" as="alternateBounds" />
          </mxGeometry>
        </mxCell>
        <mxCell id="QIEU1KKEI3exDOAzTcKu-77" value="" style="html=1;shadow=0;dashed=0;align=center;verticalAlign=middle;shape=mxgraph.arrows2.arrow;dy=0.6;dx=40;flipH=1;notch=0;fillColor=#f8cecc;gradientColor=#ea6b66;strokeColor=#b85450;movable=1;resizable=1;rotatable=1;deletable=1;editable=1;locked=0;connectable=1;" parent="1" vertex="1">
          <mxGeometry x="960" y="180" width="90" height="20" as="geometry" />
        </mxCell>
        <mxCell id="QIEU1KKEI3exDOAzTcKu-78" value="username_lowercase" style="text;html=1;strokeColor=#d6b656;fillColor=#fff2cc;align=center;verticalAlign=middle;whiteSpace=wrap;rounded=0;gradientColor=#ffd966;movable=1;resizable=1;rotatable=1;deletable=1;editable=1;locked=0;connectable=1;" parent="1" vertex="1">
          <mxGeometry x="1050" y="180" width="130" height="15" as="geometry" />
        </mxCell>
        <mxCell id="QIEU1KKEI3exDOAzTcKu-79" value="Username will be stored both in lowercase and a mix of uppercase and lowercase or just lowercase.&lt;br&gt;For example, bob and BoB, ANdrew and andrew or Andrew or ANdreW, _G_Eorge or _g_Eorge or _g_eorge.&lt;br&gt;Necessary for when we need to tell users who want to register if the username is already taken or not because we have to converted to lowercase first then check database if the username is already taken." style="text;html=1;strokeColor=default;fillColor=none;align=left;verticalAlign=middle;whiteSpace=wrap;rounded=0;movable=1;resizable=1;rotatable=1;deletable=1;editable=1;locked=0;connectable=1;" parent="1" vertex="1">
          <mxGeometry x="1000" y="195" width="320" height="115" as="geometry" />
        </mxCell>
        <mxCell id="QIEU1KKEI3exDOAzTcKu-80" value="&lt;font style=&quot;font-size: 16px;&quot;&gt;token - it will be sent by email for verification&lt;/font&gt;" style="text;html=1;align=center;verticalAlign=middle;resizable=1;points=[];autosize=1;strokeColor=none;fillColor=none;movable=1;rotatable=1;deletable=1;editable=1;locked=0;connectable=1;" parent="1" vertex="1">
          <mxGeometry x="960" y="420" width="340" height="30" as="geometry" />
        </mxCell>
        <mxCell id="QIEU1KKEI3exDOAzTcKu-81" value="&lt;font style=&quot;font-size: 16px;&quot;&gt;avatar - 0 if user doesn&#39;t have avatar and 1 if user does&lt;/font&gt;" style="text;html=1;align=center;verticalAlign=middle;resizable=1;points=[];autosize=1;strokeColor=none;fillColor=none;movable=1;rotatable=1;deletable=1;editable=1;locked=0;connectable=1;" parent="1" vertex="1">
          <mxGeometry x="960" y="380" width="410" height="30" as="geometry" />
        </mxCell>
        <mxCell id="QIEU1KKEI3exDOAzTcKu-83" value="&lt;font style=&quot;font-size: 16px;&quot;&gt;token_expiration - if the user doesn&#39;t verify his email in a certain amount of time, the user must resend email verification.&amp;nbsp;&lt;br&gt;&lt;div style=&quot;&quot;&gt;&lt;span style=&quot;background-color: initial;&quot;&gt;It will check against current date.&lt;/span&gt;&lt;/div&gt;&lt;/font&gt;" style="text;html=1;align=center;verticalAlign=middle;resizable=1;points=[];autosize=1;strokeColor=none;fillColor=none;movable=1;rotatable=1;deletable=1;editable=1;locked=0;connectable=1;" parent="1" vertex="1">
          <mxGeometry x="960" y="500" width="880" height="50" as="geometry" />
        </mxCell>
        <mxCell id="ebowM0283WtHh9Qev0xs-1" value="&lt;font style=&quot;font-size: 16px;&quot;&gt;verified_email - user is verified or not. TRUE for yes and FALSE for no. A token for verification will be sent by email&lt;/font&gt;" style="text;html=1;align=center;verticalAlign=middle;resizable=0;points=[];autosize=1;strokeColor=none;fillColor=none;" vertex="1" parent="1">
          <mxGeometry x="960" y="460" width="830" height="30" as="geometry" />
        </mxCell>
      </root>
    </mxGraphModel>
  </diagram>
</mxfile>
